# xmcd
#
# Track frame offsets: 
#        150
#        42300
#        86325
#        129450
#        173250
#        217500
#
# Disc length: 3482 seconds
#
# Revision: 4
# Processed by: cddbd v1.5.2PL0 Copyright (c) Steve Scherf et al.
# Submitted via: ExactAudioCopy v0.95a5
#
DISCID=3a0d9806
DTITLE=þþþþ tcd-4501 - þþþþ orchid
DYEAR=1997
DGENRE=New Age
TTITLE0=þþþþ ~ þþþþ fragrance of the country
TTITLE1=þþþþ ~ þkþþ origin of fragrance
TTITLE2=þþþþþgþl ~ þþþþþþþþþþ flowers of nobility
TTITLE3=þþþþþþ ~ þjþþþþ royal fragrance
TTITLE4=þþþþþþþh ~ þhþþ a beautiful lady from empty valleys
TTITLE5=þþþuþþþ@þþ ~ þþþþþþ supreme fragrance in the world
EXTD=
EXTT0=
EXTT1=
EXTT2=
EXTT3=
EXTT4=
EXTT5=
PLAYORDER=
